Coordinates
version=1
nRows=17
nColumns=40
inDegrees=yes

Units are S.I. units (second, meters, Newtons, ...)
If the header above contains a line with 'inDegrees', this indicates whether rotational values are in degrees (yes) or radians (no).

endheader
time	pelvis_tilt	pelvis_list	pelvis_rotation	pelvis_tx	pelvis_ty	pelvis_tz	hip_flexion_r	hip_adduction_r	hip_rotation_r	knee_angle_r	knee_angle_r_beta	ankle_angle_r	subtalar_angle_r	mtp_angle_r	hip_flexion_l	hip_adduction_l	hip_rotation_l	knee_angle_l	knee_angle_l_beta	ankle_angle_l	subtalar_angle_l	mtp_angle_l	lumbar_extension	lumbar_bending	lumbar_rotation	arm_flex_r	arm_add_r	arm_rot_r	elbow_flex_r	pro_sup_r	wrist_flex_r	wrist_dev_r	arm_flex_l	arm_add_l	arm_rot_l	elbow_flex_l	pro_sup_l	wrist_flex_l	wrist_dev_l
      9.11666700	      2.18749443	     61.50909541	    -93.89758808	      0.22985671	      0.63546993	      0.38908523	    118.85370413	    -27.29296575	     -3.42001631	     81.81256345	      1.42789860	     17.02935573	      0.00000000	      0.00000000	    119.45152084	    -35.11205971	     -5.79101933	     82.64239943	      1.44238197	     19.47713056	      0.00000000	      0.00000000	     29.33941290	     -4.35628500	      5.85855905	     35.39902450	    -16.42069658	     37.95264973	    141.92603259	     69.63856917	      0.00000000	      0.00000000	     53.69302225	    -19.96533098	     44.91998475	    138.10308398	     60.56786834	      0.00000000	      0.00000000
      9.13333300	      1.67476452	     59.27864138	    -93.61411824	      0.22978847	      0.62779729	      0.38615483	    118.62977690	    -27.15537746	     -2.46981480	     83.94088387	      1.46504480	     16.34484560	      0.00000000	      0.00000000	    119.28797920	    -36.16141591	     -5.26677288	     84.72767671	      1.47877693	     19.16350758	      0.00000000	      0.00000000	     25.57410384	     -4.39943998	      5.91560073	     37.65207477	    -16.63183077	     37.22564761	    141.94594322	     69.69415858	      0.00000000	      0.00000000	     55.87330521	    -19.23283047	     44.67691443	    137.93506655	     60.21413095	      0.00000000	      0.00000000
      9.15000000	      1.17795347	     57.37014659	    -93.18347285	      0.22865649	      0.62021655	      0.38507900	    118.42883180	    -27.18372706	     -1.52991439	     86.07859154	      1.50235484	     16.36910472	      0.00000000	      0.00000000	    119.00324991	    -37.68256101	     -5.74479451	     86.14122457	      1.50344799	     18.68095226	      0.00000000	      0.00000000	     22.35153567	     -4.62723615	      5.70974849	     38.97076572	    -16.54350142	     37.14663196	    142.56126910	     69.91364097	      0.00000000	      0.00000000	     58.27647709	    -18.30186242	     44.47839446	    137.61803728	     60.16536014	      0.00000000	      0.00000000
      9.16666700	     -0.03636562	     54.81887284	    -92.67515669	      0.22881444	      0.61285821	      0.38570662	    117.23971081	    -26.82421721	     -1.08617234	     88.03657380	      1.53652807	     16.67883751	      0.00000000	      0.00000000	    118.89686534	    -37.95391519	     -3.22998743	     87.91011500	      1.53432095	     17.60367723	      0.00000000	      0.00000000	     18.23293445	     -3.97758445	      5.78875964	     40.81636946	    -17.28377476	     37.63073410	    143.42416156	     69.49755978	      0.00000000	      0.00000000	     61.32882464	    -18.22544916	     46.48263472	    137.52687682	     59.19758682	      0.00000000	      0.00000000
      9.18333300	      0.44112861	     53.35253031	    -93.18052509	      0.22860510	      0.60448227	      0.38679367	    118.28619553	    -27.06538358	     -0.02114478	     90.03852083	      1.57146864	     14.31095839	      0.00000000	      0.00000000	    119.03435065	    -38.13443399	     -1.78370713	     89.99501511	      1.57070932	     17.21289427	      0.00000000	      0.00000000	     15.76514694	     -4.53971918	      5.20773953	     42.58044833	    -16.74134594	     38.02654565	    143.68142407	     69.60423702	      0.00000000	      0.00000000	     63.04921877	    -19.02289498	     46.33442314	    138.06301981	     59.08407048	      0.00000000	      0.00000000
      9.20000000	     -0.06442765	     49.72564427	    -94.12024552	      0.22624045	      0.59938313	      0.38698864	    115.91046741	    -25.87720992	      0.18173572	     91.99823566	      1.60567212	     14.13014324	      0.00000000	      0.00000000	    118.28873337	    -39.74034275	      0.93517335	     92.55239779	      1.61534407	     18.26217262	      0.00000000	      0.00000000	     10.49809156	     -4.26338343	      6.20962456	     45.47820861	    -16.85828387	     37.92016126	    143.59052190	     71.01322459	      0.00000000	      0.00000000	     65.48137928	    -19.25892975	     45.31488346	    137.92217438	     61.06077284	      0.00000000	      0.00000000
      9.21666700	      0.37810098	     48.04855080	    -94.31689236	      0.22708128	      0.59244324	      0.38628821	    115.93109121	    -26.13032092	      1.54958780	     93.79762448	      1.63707738	     14.19539782	      0.00000000	      0.00000000	    117.84859890	    -39.57225301	      1.81487492	     94.33521207	      1.64646005	     20.12918858	      0.00000000	      0.00000000	      7.68301551	     -4.78209716	      5.86135232	     47.98091635	    -17.04031177	     38.42795722	    143.19623916	     71.01065114	      0.00000000	      0.00000000	     67.19396772	    -19.39064913	     44.39690777	    137.83946744	     60.49174184	      0.00000000	      0.00000000
      9.23333300	     -3.60849475	     34.87036680	    -92.91302359	      0.22831671	      0.61421457	      0.38699690	    101.05457953	    -25.33854239	     -1.13941576	     93.99144735	      1.64046022	     14.66539699	      0.00000000	      0.00000000	    107.29177901	    -40.46458935	      5.75533204	     95.23483603	      1.66216145	     19.82048017	      0.00000000	      0.00000000	    -10.83183944	     -2.29979360	      6.38698572	     55.28964333	    -18.02308894	     37.50790010	    142.03960638	     69.59507859	      0.00000000	      0.00000000	     72.08576520	    -18.58114430	     42.59146975	    136.79313190	     58.82064330	      0.00000000	      0.00000000
      9.25000000	     -3.40638681	     34.31221210	    -92.88482238	      0.22771348	      0.60585984	      0.38613243	    102.11616778	    -25.57368122	     -0.24842553	     95.64318282	      1.66928845	     14.95357576	      0.00000000	      0.00000000	    108.54850529	    -40.59972961	      7.31797517	     97.42865817	      1.70045087	     21.60044701	      0.00000000	      0.00000000	    -12.16237114	     -2.59675010	      6.42808581	     56.34328209	    -18.68853542	     37.79358694	    142.14984090	     69.66754196	      0.00000000	      0.00000000	     73.73867518	    -18.31062871	     42.23536107	    136.94418327	     58.61058858	      0.00000000	      0.00000000
      9.26666700	     -3.60752507	     33.99242954	    -93.04263418	      0.22672537	      0.59942341	      0.38489529	    102.60637604	    -25.34987253	     -0.16407414	     96.58931429	      1.68580156	     15.24274344	      0.00000000	      0.00000000	    109.52501889	    -40.76853819	      8.50809037	     98.19146331	      1.71376433	     21.69207733	      0.00000000	      0.00000000	    -13.12034937	     -2.49369832	      6.13227723	     57.22984954	    -18.02107957	     37.62718305	    141.57047244	     69.56422596	      0.00000000	      0.00000000	     75.46102286	    -18.76796744	     42.21283567	    136.56553453	     58.42849641	      0.00000000	      0.00000000
      9.28333300	     -6.77876009	     31.61744401	    -91.92887444	      0.22905367	      0.59756666	      0.38425759	     99.09972232	    -25.09462380	     -3.18894079	     96.88669113	      1.69099176	     15.19461715	      0.00000000	      0.00000000	    110.64051465	    -40.56382713	     12.80298266	     98.90299514	      1.72618291	     20.01016041	      0.00000000	      0.00000000	    -16.80175962	      0.64926028	      7.81848485	     59.71003442	    -19.69052771	     38.11551943	    142.24099873	     68.17437756	      0.00000000	      0.00000000	     75.96503878	    -17.74298533	     42.80452250	    136.74273166	     47.96875673	      0.00000000	      0.00000000
      9.30000000	     -6.73619877	     31.19220399	    -91.96654874	      0.22832006	      0.59016089	      0.38397374	    100.19938903	    -24.96503282	     -2.29420280	     98.25113693	      1.71480583	     15.06141648	      0.00000000	      0.00000000	    111.48681899	    -40.68181415	     13.77223549	    100.38930593	      1.75212392	     20.55520248	      0.00000000	      0.00000000	    -17.87237526	      0.45112392	      7.27963790	     60.73753780	    -19.13016890	     38.36327786	    142.40614451	     68.24493685	      0.00000000	      0.00000000	     76.86981396	    -18.08892891	     42.11947844	    136.59409802	     47.74324758	      0.00000000	      0.00000000
      9.31666700	     -6.16123820	     31.93816344	    -92.47629189	      0.22696282	      0.58148947	      0.38383154	    102.53916185	    -24.96191171	     -1.37525999	     99.42874686	      1.73535900	     14.57951372	      0.00000000	      0.00000000	    113.56288745	    -41.03682174	     14.89971601	    102.23177940	      1.78428115	     23.34771049	      0.00000000	      0.00000000	    -17.32626288	     -0.24706960	      7.36819992	     60.28480138	    -18.84646594	     38.57413724	    142.65454318	     68.25404098	      0.00000000	      0.00000000	     77.13604127	    -18.20959838	     41.96774082	    136.76414072	     44.86649350	      0.00000000	      0.00000000
      9.33333300	     -6.19914506	     31.55968117	    -92.56508478	      0.22593025	      0.57403346	      0.38521139	    103.23691208	    -24.93707861	     -1.00141540	    100.64211405	      1.75653626	     14.59659986	      0.00000000	      0.00000000	    114.08059020	    -40.95817808	     15.91682791	    103.15820559	      1.80045034	     22.99170844	      0.00000000	      0.00000000	    -18.07410707	     -0.40175243	      7.25191181	     60.63850049	    -18.73194154	     38.82440518	    142.54121612	     68.32292056	      0.00000000	      0.00000000	     78.10494852	    -18.37421796	     41.82301424	    136.81896611	     44.73569443	      0.00000000	      0.00000000
      9.35000000	     -6.67933739	     31.93961770	    -91.91811481	      0.22745948	      0.56519890	      0.38494130	    104.72509908	    -25.61553119	     -0.77709708	    101.71170381	      1.77520412	     15.78008029	      0.00000000	      0.00000000	    116.08160496	    -39.85215034	     17.11668788	    103.95592112	      1.81437310	     23.62096647	      0.00000000	      0.00000000	    -17.86894140	      0.21365755	      5.86163016	     60.90900495	    -18.50593612	     39.30765677	    142.12750154	     68.60512038	      0.00000000	      0.00000000	     77.43125925	    -18.93368937	     40.93907792	    137.76636792	     43.65726008	      0.00000000	      0.00000000
      9.36666700	     -6.54765812	     31.66672084	    -92.13948702	      0.22726118	      0.55831608	      0.38545743	    105.53469133	    -25.69977051	     -0.30846692	    102.68460521	      1.79218445	     15.92640693	      0.00000000	      0.00000000	    116.93318907	    -39.86609890	     17.99054377	    105.10264621	      1.83438723	     23.97545288	      0.00000000	      0.00000000	    -18.49963369	      0.00420361	      5.55315856	     61.26521038	    -18.53145704	     39.72728207	    142.10775387	     68.70383812	      0.00000000	      0.00000000	     77.76209398	    -18.42640581	     40.34633688	    137.74254167	     43.58481696	      0.00000000	      0.00000000
      9.38333300	     -5.60989218	     33.35784102	    -92.14131015	      0.22601783	      0.54825636	      0.38597804	    108.83769658	    -26.06486076	      0.87383102	    103.60910653	      1.80832004	     16.68754994	      0.00000000	      0.00000000	    118.91257240	    -39.20096324	     17.65387777	    105.90600001	      1.84840840	     25.50638963	      0.00000000	      0.00000000	    -16.56428819	     -0.83268301	      4.63283053	     60.81575900	    -18.12066117	     40.15652658	    141.92426367	     69.22987467	      0.00000000	      0.00000000	     77.06198364	    -17.70724831	     40.07851649	    138.26962710	     43.72274071	      0.00000000	      0.00000000
